<svg version="1.1" id="Layer_1" xmlns="http://www.w3.org/2000/svg" xmlns:xlink="http://www.w3.org/1999/xlink" x="0px" y="0px"
	 width="100%" viewBox="0 0 1024 1024" enable-background="new 0 0 1024 1024" xml:space="preserve">
<path fill="#000000" opacity="1.000000" stroke="none" 
	d="
M691.008118,189.919464 
	C748.646606,221.482239 794.810364,264.608704 829.521667,320.125366 
	C855.735535,362.051453 872.841064,407.208832 880.497620,456.037323 
	C883.908508,477.789490 885.781433,499.661285 885.084412,521.631470 
	C882.534851,601.988525 856.942200,674.265259 807.241028,737.545532 
	C752.500305,807.242188 682.146423,852.767456 595.229919,871.845520 
	C562.555847,879.017456 529.418762,881.642639 496.041718,880.093201 
	C433.103516,877.171692 374.698303,859.125732 321.080200,826.025085 
	C273.730133,796.794006 234.677170,758.929749 204.107239,712.354919 
	C178.875412,673.912903 161.416840,632.203369 152.175568,587.211914 
	C145.865906,556.493103 143.548538,525.475708 145.412323,493.976868 
	C149.702042,421.478790 173.510986,356.023224 215.888123,297.548431 
	C266.867249,227.204025 334.630157,180.409180 418.729767,157.841522 
	C442.203369,151.542511 466.148468,148.050735 490.459625,146.533081 
	C561.316162,142.109802 628.041626,156.343491 691.008118,189.919464 
M694.042419,292.394012 
	C726.064880,308.151031 752.763672,330.191071 773.089417,359.664673 
	C806.057434,407.470154 819.786255,460.539032 816.404846,518.304565 
	C814.705994,547.326843 809.735474,575.833130 800.790894,603.398315 
	C779.891479,667.805664 744.571106,723.763306 698.893799,773.432068 
	C694.582520,778.120056 689.413940,782.039062 685.928284,787.540039 
	C687.904053,786.913208 689.732361,786.147156 691.361084,785.077271 
	C729.875000,759.776367 762.398621,728.305298 787.552917,689.656860 
	C819.192017,641.044739 836.180115,587.368103 839.462280,529.597534 
	C841.600037,491.970642 837.755615,454.770355 826.102539,418.715942 
	C803.062500,347.430359 761.510071,289.648346 699.760803,246.782639 
	C648.060303,210.892654 590.507385,192.327438 527.828735,189.480621 
	C503.987579,188.397781 480.205841,190.225433 456.765381,194.607208 
	C379.240234,209.099167 314.522156,245.923630 264.177032,306.958038 
	C234.117264,343.400085 212.473267,384.512939 199.843826,430.049683 
	C191.089188,461.615417 187.515640,493.896179 189.032883,526.763367 
	C189.971512,547.095703 192.225555,567.173706 196.872437,586.967285 
	C207.508560,632.272095 227.524734,673.133179 256.312073,709.568542 
	C293.497620,756.633362 338.927795,792.856140 395.662567,814.032349 
	C424.517853,824.802551 453.513428,825.867126 482.604034,815.945374 
	C526.128967,801.100586 560.080200,773.044312 588.101501,737.361694 
	C619.093323,697.896301 636.387878,652.218506 647.265808,603.802612 
	C647.922302,600.880981 649.867249,597.563843 647.751099,594.198853 
	C645.483276,595.299744 645.156738,597.424744 644.379639,599.183655 
	C630.981506,629.507446 617.082092,659.575256 600.234802,688.193970 
	C587.921692,709.110413 571.734924,725.062134 547.042480,730.166931 
	C523.731812,734.986084 500.409332,734.866638 477.253235,729.243896 
	C456.238434,724.141113 439.556549,712.712830 428.398834,693.949097 
	C421.786865,682.830017 418.635834,670.284668 414.733368,658.105103 
	C400.984985,615.196838 384.763519,573.361755 361.969421,534.322998 
	C352.503387,518.110840 341.833099,502.977478 326.128998,491.927124 
	C318.788544,486.761871 312.165466,480.584412 305.744904,474.264069 
	C283.999329,452.858032 274.252655,427.317932 279.616150,396.841797 
	C283.408417,375.293762 294.723267,357.606201 309.166748,341.700623 
	C311.124054,339.545166 312.543732,337.452637 312.942078,334.403046 
	C315.945007,311.413055 329.737061,296.538910 349.805481,286.883148 
	C374.226135,275.133362 399.986511,273.392700 426.310730,278.180695 
	C448.893311,282.288147 471.589111,285.652954 494.507721,286.505920 
	C531.671509,287.889038 568.641113,285.750916 605.192810,278.227509 
	C620.612976,275.053619 636.250305,274.215363 651.814758,276.831543 
	C666.548401,279.308044 680.155090,285.254517 694.042419,292.394012 
M624.466064,539.010193 
	C611.960327,546.663574 600.698303,556.165100 588.009705,563.545166 
	C586.292725,564.543884 585.580811,565.981995 585.168762,567.937988 
	C583.663025,575.085388 582.190430,582.258789 580.211304,589.283264 
	C576.060425,604.015686 570.042786,617.835571 558.967102,628.873291 
	C556.818298,631.014771 554.629944,633.270020 551.379456,633.875061 
	C551.155151,633.119568 550.917542,632.765503 550.997559,632.511780 
	C551.346436,631.406494 551.748535,630.313782 552.201294,629.246155 
	C559.515320,611.998352 559.053101,593.858276 558.307312,575.697632 
	C558.167053,572.282288 556.498047,570.488953 552.763000,569.987122 
	C540.572815,568.349426 528.415344,566.412415 516.081787,566.400085 
	C503.235382,566.387268 490.627136,568.931519 477.898041,570.156128 
	C472.880920,570.638855 471.170380,572.586243 471.287354,577.297852 
	C471.411285,582.290588 471.112701,587.292236 471.100159,592.290222 
	C471.071747,603.617920 471.235901,614.917114 475.250305,625.763489 
	C476.193481,628.311829 477.865814,630.692017 477.880219,633.656311 
	C475.251251,634.112732 473.866608,632.505249 472.376373,631.310974 
	C466.410553,626.530029 462.201935,620.334229 458.679413,613.669678 
	C451.372589,599.845032 447.313904,584.958374 444.719879,569.635437 
	C444.314514,567.240845 443.866425,565.108826 441.648071,563.695007 
	C425.592529,553.462524 411.395813,540.779907 396.317749,529.258240 
	C394.675720,528.003540 393.144501,526.409058 390.807343,526.947266 
	C390.378845,528.731384 391.260925,529.835205 391.804779,531.016357 
	C404.966003,559.599182 418.028412,588.228210 431.350403,616.735962 
	C439.029541,633.168640 445.959015,650.002075 455.651886,665.420410 
	C468.074036,685.180298 485.273865,691.695496 507.489471,685.052124 
	C511.662354,683.804260 515.408203,683.732849 519.609375,685.089294 
	C533.683716,689.633667 547.174927,688.562561 559.538635,679.751465 
	C566.916016,674.493896 572.124695,667.379944 576.154175,659.445679 
	C589.651367,632.869019 601.816711,605.628113 615.873840,579.332397 
	C621.569031,568.678833 626.521484,557.633606 636.780762,549.926453 
	C653.572815,537.311584 671.011780,525.636597 688.047302,513.383179 
	C700.570068,504.375793 711.892456,494.135223 720.120911,480.876068 
	C720.817261,479.753967 722.413635,478.613281 720.690674,477.117798 
	C719.191650,476.930725 718.603882,478.125031 717.745361,478.836517 
	C711.075806,484.363373 704.290222,489.730530 697.073853,494.543213 
	C673.645264,510.167908 648.675659,523.273926 624.466064,539.010193 
M411.121277,409.757751 
	C407.183380,418.062653 407.086945,427.567627 403.417053,436.597107 
	C401.066833,433.629028 400.470428,430.868103 399.622681,428.200806 
	C395.977905,416.732269 396.692780,404.817017 396.049316,393.050354 
	C395.838715,389.199158 395.048187,385.772980 391.931854,383.283264 
	C385.942719,378.498413 379.920868,373.740784 373.167206,370.049774 
	C367.674500,367.047913 363.963196,368.471893 362.759888,374.454437 
	C358.705780,394.610901 361.750885,413.000824 375.882538,428.986542 
	C393.256958,448.640442 422.838226,447.995361 436.899231,440.171021 
	C443.381348,436.563995 444.206879,432.646088 440.211365,426.312927 
	C439.507233,425.196869 438.554260,424.233246 437.683167,423.227814 
	C431.969818,416.632660 425.213013,411.389954 417.422943,407.441803 
	C414.804901,406.114990 412.974731,406.863312 411.121277,409.757751 
M630.292297,407.404633 
	C629.724609,416.805328 628.773315,426.110596 624.107056,434.638458 
	C621.711609,433.544006 621.951721,431.714508 621.533325,430.170380 
	C619.578247,422.955444 618.405029,415.507324 615.266296,408.643280 
	C613.895752,405.646027 611.674561,403.062805 608.396301,405.559540 
	C600.706909,411.415588 593.568787,418.032776 587.568542,425.590149 
	C582.815430,431.576569 584.689636,437.789703 591.428284,440.326355 
	C615.105957,449.239471 643.996582,443.052521 657.595154,418.118011 
	C665.387085,403.830658 662.786316,389.775970 658.099915,375.685638 
	C656.430115,370.664886 653.076782,370.135529 648.738098,373.099884 
	C644.479126,376.009735 640.451599,379.270660 636.106750,382.038910 
	C631.435120,385.015381 629.096497,388.614960 630.092773,394.458252 
	C630.755737,398.346741 630.268188,402.431396 630.292297,407.404633 
M467.319916,511.797424 
	C468.725494,516.745361 473.215118,516.945557 477.090851,518.995117 
	C476.904572,512.406311 471.791382,508.673340 467.319916,511.797424 
M555.096802,513.520203 
	C554.256958,515.023132 551.498108,517.122070 555.524658,517.586975 
	C557.876282,517.858521 560.171814,516.041138 562.033142,514.359985 
	C562.890076,513.585938 562.533813,512.520691 562.021606,511.613525 
	C561.370605,510.460571 560.368713,510.038483 559.085327,510.340515 
	C557.526489,510.707336 556.637451,511.966736 555.096802,513.520203 
z"/>
</svg>