<svg version="1.1" id="Layer_1" xmlns="http://www.w3.org/2000/svg" xmlns:xlink="http://www.w3.org/1999/xlink" x="0px" y="0px"
	 width="100%" viewBox="0 0 1024 1024" enable-background="new 0 0 1024 1024" xml:space="preserve">
<path fill="#000000" opacity="1.000000" stroke="none" 
	d="
M691.008118,189.919464 
	C748.646606,221.482239 794.810364,264.608704 829.521667,320.125366 
	C855.735535,362.051453 872.841064,407.208832 880.497620,456.037323 
	C883.908508,477.789490 885.781433,499.661285 885.084412,521.631470 
	C882.534851,601.988525 856.942200,674.265259 807.241028,737.545532 
	C752.500305,807.242188 682.146423,852.767456 595.229919,871.845520 
	C562.555847,879.017456 529.418762,881.642639 496.041718,880.093201 
	C433.103516,877.171692 374.698303,859.125732 321.080200,826.025085 
	C273.730133,796.794006 234.677170,758.929749 204.107239,712.354919 
	C178.875412,673.912903 161.416840,632.203369 152.175568,587.211914 
	C145.865906,556.493103 143.548538,525.475708 145.412323,493.976868 
	C149.702042,421.478790 173.510986,356.023224 215.888123,297.548431 
	C266.867249,227.204025 334.630157,180.409180 418.729767,157.841522 
	C442.203369,151.542511 466.148468,148.050735 490.459625,146.533081 
	C561.316162,142.109802 628.041626,156.343491 691.008118,189.919464 
M694.042419,292.394012 
	C726.064880,308.151031 752.763672,330.191071 773.089417,359.664673 
	C806.057434,407.470154 819.786255,460.539032 816.404846,518.304565 
	C814.705994,547.326843 809.735474,575.833130 800.790894,603.398315 
	C779.891479,667.805664 744.571106,723.763306 698.893799,773.432068 
	C694.582520,778.120056 689.413940,782.039062 685.928284,787.540039 
	C687.904053,786.913208 689.732361,786.147156 691.361084,785.077271 
	C729.875000,759.776367 762.398621,728.305298 787.552917,689.656860 
	C819.192017,641.044739 836.180115,587.368103 839.462280,529.597534 
	C841.600037,491.970642 837.755615,454.770355 826.102539,418.715942 
	C803.062500,347.430359 761.510071,289.648346 699.760803,246.782639 
	C648.060303,210.892654 590.507385,192.327438 527.828735,189.480621 
	C503.987579,188.397781 480.205841,190.225433 456.765381,194.607208 
	C379.240234,209.099167 314.522156,245.923630 264.177032,306.958038 
	C234.117264,343.400085 212.473267,384.512939 199.843826,430.049683 
	C191.089188,461.615417 187.515640,493.896179 189.032883,526.763367 
	C189.971512,547.095703 192.225555,567.173706 196.872437,586.967285 
	C207.508560,632.272095 227.524734,673.133179 256.312073,709.568542 
	C293.497620,756.633362 338.927795,792.856140 395.662567,814.032349 
	C424.517853,824.802551 453.513428,825.867126 482.604034,815.945374 
	C526.128967,801.100586 560.080200,773.044312 588.101501,737.361694 
	C619.093323,697.896301 636.387878,652.218506 647.265808,603.802612
	C655.841370,565.644287 660.406372,527.279419 658.823242,488.016052 
	C657.399597,452.073364 648.634277,417.417633 631.922302,384.935425 
	C610.870178,343.043152 579.603638,310.444763 535.785706,292.297943 
	C499.151978,277.166992 462.558655,277.175995 426.129517,293.162903 
	C395.260254,306.763092 374.211395,330.834991 365.564880,364.112061 
	C355.534088,402.569061 368.861206,437.063507 397.493164,464.745422 
	C438.543793,504.475952 489.401154,506.635468 531.612732,464.122528 
	C554.014709,441.558380 557.735168,412.930054 541.637939,386.787415 
	C527.256714,363.729004 504.278687,355.983429 479.267334,362.004517 
	C463.849243,365.667664 453.082733,375.043091 447.814667,389.667938 
	C442.883667,403.256073 446.430847,415.691803 459.107941,423.791168 
	C470.153168,430.878113 482.601776,426.873840 490.055969,414.813812 
	C493.799377,408.933655 495.604889,402.157104 493.804504,394.832062 
	C493.158844,392.101929 494.572418,390.581970 496.034271,388.324280 
	C512.572998,361.447266 544.771179,372.476807 556.298157,403.695557 
	C566.107544,429.965790 549.908020,459.337555 527.704712,471.333221 
	C508.801575,481.401825 485.891907,479.847076 466.294617,467.613800 
	C435.624451,448.830933 415.022278,420.079041 415.031616,380.607361 
	C415.040466,342.882599 429.683136,311.599243 464.736511,296.728516 
	C493.086884,284.916260 522.303711,285.502655 551.257324,295.343231 
	C602.104370,313.146912 637.408569,347.013489 656.473328,398.031860 
	C669.480103,433.083008 672.970886,469.581696 671.329102,507.027924 
	C669.561218,547.214661 658.695923,584.908691 646.878418,622.434387 
	C630.597595,673.989136 603.598206,719.589172 566.197266,758.697815 
	C564.800537,760.164429 563.070862,761.460205 562.027710,763.244934 
	C559.982300,766.678345 560.536438,767.838196 564.920166,768.027710 
	C576.151001,768.516724 587.236633,766.913086 598.053650,764.248901 
	C610.445923,761.181824 621.585510,755.283997 632.334045,748.675049 
	C639.294006,744.540588 644.963013,739.057861 649.246033,732.039490 
	C660.086365,715.120605 671.075562,698.116150 678.029358,679.077698 
	C681.054932,670.935120 686.664917,668.577698 693.812622,673.693604 
	C696.254028,675.426514 697.943542,678.171143 697.973877,682.053589 
	C697.771057,685.955994 696.038452,689.936890 694.452087,693.710938 
	C691.615479,700.822205 688.870422,708.233093 684.503723,714.437317 
	C674.933777,728.766602 674.921753,745.122803 679.037354,761.562622 
	C683.210571,778.205139 690.066589,793.901489 698.291016,808.851929 
	C702.492249,816.765686 708.093994,823.478943 715.747070,828.412720 
	C732.304871,839.000305 750.298706,843.700012 769.734619,837.176025 
	C783.804016,832.405273 792.257690,822.382568 793.340393,809.723511 
	C794.412781,797.165588 786.286438,786.950928 772.626282,783.259460 
	C768.989136,782.144897 765.178345,781.831665 761.461060,781.157410 
	C752.116821,779.506714 744.813904,775.146362 738.792725,768.509399 
	C731.308350,760.267944 727.253113,750.583069 724.120178,740.277710 
	C723.094666,737.035156 724.059021,734.460388 726.397949,732.260864 
	C731.234741,727.714172 736.531860,723.731628 742.158142,720.149841 
	C757.683411,710.509583 773.977173,702.777283 791.282715,697.449036 
	C796.206360,695.979919 799.675903,697.192505 801.749512,701.939087 
	C805.507812,710.335144 808.410889,719.222534 808.864624,728.745300 
	C810.758972,766.841858 784.868713,797.830322 747.319031,806.784058 
	C702.107117,817.756409 663.198730,799.095459 640.521973,758.013184 
	C637.727295,752.919861 636.875366,746.882446 635.082397,741.285583 
	C631.207642,729.021545 622.630371,721.079956 610.294861,718.036743 
	C589.392822,712.763489 569.869995,719.059631 552.614807,732.384033 
	C530.506714,749.242981 515.088013,771.333008 502.529724,795.622376 
	C485.470886,828.456177 458.466919,838.268433 422.856934,834.037231 
	C364.260040,827.001343 316.558136,800.330444 274.873871,762.579407 
	C235.643295,727.072937 207.504379,684.319397 188.477829,635.871948 
	C172.955353,596.554810 164.340851,555.578369 163.921555,513.297119 
	C163.579315,478.599792 167.699203,444.647156 176.789108,411.426544 
	C186.049789,377.447540 201.314957,346.462921 221.624634,318.134186 
	C244.372345,286.095154 271.548462,259.348389 304.290100,239.213547 
	C334.084534,220.902924 366.195129,208.886978 400.642517,203.370224 
	C441.440247,196.820892 481.859131,198.215424 521.649902,207.654205 
	C566.087646,218.135971 605.049622,237.688004 640.048767,265.667480 
	C671.717468,290.861816 694.042419,292.394012 694.042419,292.394012 
z"/>
</svg>
